<svg width="151" height="114" viewBox="0 0 151 114" fill="none" xmlns="http://www.w3.org/2000/svg">
<path d="M90.0592 51.4892C92.3984 68.8796 91.7861 125.922 103.514 141.542C104.815 143.275 106.948 145.274 109.561 144.897C110.917 144.702 111.879 143.895 112.707 143.117C128.913 127.917 132.944 106.28 123.03 87.7274C121.28 84.453 117.983 80.7288 113.179 80.8329C107.981 80.948 105.659 85.3904 105.18 89.093C103.614 101.173 108.828 113.859 119.422 123.74C125.79 120.731 129.115 115.412 131.87 110.277C145.314 85.2067 164.048 56.4368 164.062 29.1635C164.066 20.5778 163.368 11.8806 160.064 3.51985C159.746 2.71527 159.38 1.88621 158.592 1.25708C156.119 -0.710685 141.59 5.18787 138.936 6.85576C131.915 11.268 127.56 17.4608 124.078 23.7202C114.792 40.4078 108.935 55.8045 110.238 74.0768C110.367 75.9038 110.706 77.9572 112.696 79.1611C125.827 71.7012 127.59 56.3755 117.944 45.9011C108.297 35.4268 100.16 15.6711 83.0191 14.9038C81.1683 14.8214 72.0858 20.5272 64.3469 27.0143C54.0616 35.6358 60.2248 45.765 73.6446 45.9389C92.1975 46.1793 114.48 42.865 131.137 44.5624C132.068 44.6565 142.448 45.4229 147.164 43.0796C140.996 47.9462 135.527 54.2729 133.165 61.1934C127.528 77.7266 124.979 95.2507 130.311 112.199C133.02 120.814 137.708 129.101 142.632 137.266C150.832 150.865 159.752 164.252 168.669 177.634C146.763 142.257 104.628 100.944 58.4151 80.6743C56.085 84.463 69.9933 97.4952 72.1431 101.488C86.6436 128.423 90.9619 159.722 107.308 186.16C112.904 195.212 118.667 204.373 120.809 214.055C108.851 187.284 90.3877 161.128 61.5746 141.651C55.0834 137.263 24.8051 125.106 16.2142 123.74C11.4623 140.511 35.8164 166.353 43.2323 183.031C45.1731 183.552 46.7189 181.929 47.2885 180.541C51.2051 170.996 39.7336 158.348 28.4493 151.962C26.7444 161.781 23.7484 172.245 28.5389 181.742" fill="#8C82F8"/>
</svg>
