<svg width="56" height="64" viewBox="0 0 56 64" fill="none" xmlns="http://www.w3.org/2000/svg">
<path d="M0 4C0 1.79086 1.79086 0 4 0H52C54.2091 0 56 1.79086 56 4V47.2773C56 48.7519 55.1887 50.1069 53.8889 50.8032L30.3611 63.4074C29.6236 63.8025 28.8118 64 28 64C27.1882 64 26.3764 63.8025 25.6389 63.4074L2.11112 50.8032C0.811295 50.1069 0 48.7519 0 47.2773V4Z" fill="url(#paint0_linear)"/>
<path fill-rule="evenodd" clip-rule="evenodd" d="M36.7326 33.5926L30.5421 27.4022L35.0502 25.4573C35.3999 25.3064 35.6193 24.9542 35.6004 24.5737C35.5814 24.1933 35.3284 23.8645 34.9654 23.7488L20.1903 19.043C19.8649 18.9395 19.5089 19.026 19.2676 19.2675C19.0261 19.5089 18.9395 19.8648 19.0431 20.1902L23.7489 34.9654C23.8644 35.3284 24.1934 35.5815 24.5738 35.6005C24.9543 35.6194 25.3065 35.4 25.4574 35.0502L27.4023 30.5422L33.5927 36.7326C33.7639 36.9038 33.9961 37.0001 34.2382 37.0001C34.4804 37.0001 34.7128 36.9039 34.8838 36.7326L36.7324 34.8839C37.0892 34.5273 37.0892 33.9492 36.7326 33.5926V33.5926Z" fill="white"/>
<defs>
<linearGradient id="paint0_linear" x1="0" y1="0" x2="34.4615" y2="60.3077" gradientUnits="userSpaceOnUse">
<stop stop-color="#23A3FF"/>
<stop offset="1" stop-color="#546CEA"/>
</linearGradient>
</defs>
</svg>
