<svg width="56" height="64" viewBox="0 0 56 64" fill="none" xmlns="http://www.w3.org/2000/svg">
<path d="M0 4C0 1.79086 1.79086 0 4 0H52C54.2091 0 56 1.79086 56 4V47.2773C56 48.7519 55.1887 50.1069 53.8889 50.8032L30.3611 63.4074C29.6236 63.8025 28.8118 64 28 64C27.1882 64 26.3764 63.8025 25.6389 63.4074L2.11112 50.8032C0.811295 50.1069 0 48.7519 0 47.2773V4Z" fill="url(#paint0_linear_401_413)"/>
<path d="M28.0385 34.6775C26.2656 34.6775 24.753 33.5813 24.5961 32.2359C24.5883 32.1719 24.558 32.1131 24.511 32.0706C24.464 32.0281 24.4036 32.0048 24.3411 32.0052H22.2675C22.2316 32.0055 22.1962 32.0135 22.1634 32.0285C22.1306 32.0436 22.1012 32.0654 22.0769 32.0927C22.0527 32.12 22.0341 32.1522 22.0224 32.1872C22.0107 32.2222 22.0061 32.2593 22.0089 32.2963C22.156 34.7051 24.1183 36.6933 26.7044 37.2112V39.7325C26.7044 39.8034 26.7317 39.8715 26.7803 39.9216C26.8288 39.9718 26.8947 40 26.9635 40H29.028C29.0967 40 29.1626 39.9718 29.2112 39.9216C29.2598 39.8715 29.2871 39.8034 29.2871 39.7325V37.2419C32.0456 36.7806 34 34.8016 34 32.2811C34 30.6001 33.0278 28.2725 28.3962 26.7306C27.2496 26.349 24.5827 25.2914 24.5827 23.7182C24.5827 22.1451 26.2825 21.3219 27.9615 21.3219C29.7344 21.3219 31.247 22.418 31.4039 23.7635C31.4117 23.8275 31.442 23.8862 31.489 23.9287C31.536 23.9712 31.5964 23.9945 31.6589 23.9941H33.7325C33.7684 23.9938 33.8038 23.9859 33.8366 23.9708C33.8694 23.9558 33.8988 23.9339 33.9231 23.9066C33.9473 23.8793 33.9659 23.8472 33.9776 23.8122C33.9893 23.7771 33.9939 23.74 33.9911 23.7031C33.8438 21.2915 31.8774 19.3016 29.2871 18.7864V16.2675C29.2871 16.1966 29.2598 16.1285 29.2112 16.0784C29.1626 16.0282 29.0967 16 29.028 16H26.9635C26.9294 16 26.8957 16.0069 26.8643 16.0204C26.8329 16.0338 26.8043 16.0535 26.7803 16.0784C26.7562 16.1032 26.7371 16.1327 26.7241 16.1651C26.7111 16.1976 26.7044 16.2324 26.7044 16.2675V18.7591C23.9504 19.2231 22 21.2003 22 23.7182C22 25.3993 22.9722 27.727 27.6038 29.2686C28.7504 29.6504 31.4173 30.7081 31.4173 32.2811C31.4173 33.8543 29.7175 34.6775 28.0385 34.6775Z" fill="white"/>
<defs>
<linearGradient id="paint0_linear_401_413" x1="0" y1="0" x2="63.4336" y2="55.5044" gradientUnits="userSpaceOnUse">
<stop stop-color="#4D3BF9"/>
<stop offset="1" stop-color="#746EA1"/>
</linearGradient>
</defs>
</svg>
