<svg width="56" height="64" viewBox="0 0 56 64" fill="none" xmlns="http://www.w3.org/2000/svg">
<path d="M0 4C0 1.79086 1.79086 0 4 0H52C54.2091 0 56 1.79086 56 4V47.2773C56 48.7519 55.1887 50.1069 53.8889 50.8032L30.3611 63.4074C29.6236 63.8025 28.8118 64 28 64C27.1882 64 26.3764 63.8025 25.6389 63.4074L2.11112 50.8032C0.811295 50.1069 0 48.7519 0 47.2773V4Z" fill="url(#paint0_linear)"/>
<g clip-path="url(#clip0)">
<path d="M32.4688 27.1875H23.5313C21.5 27.1875 19.875 25.5625 19.875 23.5312C19.875 21.5 21.5 19.875 23.5313 19.875C25.3188 19.875 26.7813 21.175 27.1063 22.8812L26.2938 22.0687C25.9688 21.7437 25.4813 21.7437 25.1563 22.0687C24.8313 22.3937 24.8313 22.8812 25.1563 23.2062L28 26.05L30.8438 23.2062C31.1688 22.8812 31.1688 22.3937 30.8438 22.0687C30.5188 21.7437 30.0313 21.7437 29.7063 22.0687L28.8125 23.0438C28.4875 20.3625 26.2938 18.25 23.5313 18.25C20.6063 18.25 18.25 20.6063 18.25 23.5312C18.25 26.4562 20.6063 28.8125 23.5313 28.8125H32.4688C34.5 28.8125 36.125 30.4375 36.125 32.4688C36.125 34.5 34.5 36.125 32.4688 36.125C30.5188 36.125 28.8125 34.6625 28.8125 32.875C28.8125 31.575 28.8125 31.4125 28.8125 31.25C28.8125 30.7625 28.4875 30.4375 28 30.4375C27.5125 30.4375 27.1875 30.7625 27.1875 31.25V31.3313C27.1875 31.4125 27.1875 31.575 27.1875 32.875C27.1875 35.5562 29.625 37.75 32.4688 37.75C35.3938 37.75 37.75 35.3937 37.75 32.4688C37.75 29.5438 35.3938 27.1875 32.4688 27.1875Z" fill="white"/>
</g>
<defs>
<linearGradient id="paint0_linear" x1="0" y1="0" x2="34.4615" y2="60.3077" gradientUnits="userSpaceOnUse">
<stop stop-color="#76A1D5"/>
<stop offset="1" stop-color="#656D8C"/>
</linearGradient>
<clipPath id="clip0">
<rect width="19.5" height="19.5" fill="white" transform="translate(18.25 18.25)"/>
</clipPath>
</defs>
</svg>
