<svg width="56" height="64" viewBox="0 0 56 64" fill="none" xmlns="http://www.w3.org/2000/svg">
<path d="M0 4C0 1.79086 1.79086 0 4 0H52C54.2091 0 56 1.79086 56 4V47.2773C56 48.7519 55.1887 50.1069 53.8889 50.8032L30.3611 63.4074C29.6236 63.8025 28.8118 64 28 64C27.1882 64 26.3764 63.8025 25.6389 63.4074L2.11112 50.8032C0.811295 50.1069 0 48.7519 0 47.2773V4Z" fill="url(#paint0_linear_401_407)"/>
<path d="M32.1134 20.0896C32.6388 19.9772 32.9694 19.4794 32.8517 18.9777C32.734 18.4759 32.2126 18.1603 31.6872 18.2727C30.5943 18.5065 29.2633 19.3383 28.684 21.1002C28.4619 21.0626 28.2334 21.0431 28 21.0431C27.7668 21.0431 27.5383 21.0626 27.3163 21.1001C26.7371 19.3383 25.406 18.5064 24.3132 18.2727C23.7878 18.1603 23.2664 18.4759 23.1487 18.9777C23.031 19.4794 23.3615 19.9772 23.887 20.0896C24.3678 20.1924 25.1984 20.6136 25.5233 21.8902C24.6543 22.5732 24.1001 23.6082 24.1001 24.7669C24.1001 25.1405 24.158 25.5022 24.2659 25.8436C23.8342 26.2594 23.4588 26.7442 23.1489 27.2788L21.9073 26.4591L21.1521 25.0965C20.9002 24.642 20.3103 24.4686 19.8343 24.709C19.3584 24.9495 19.1767 25.5129 19.4286 25.9673L20.2952 27.5309C20.3683 27.663 20.4737 27.7763 20.6025 27.8613L22.4133 29.0567C22.325 29.3849 22.258 29.7217 22.2137 30.0641L20.7381 29.8938C20.4999 29.8663 20.2595 29.9236 20.0628 30.0548L18.6668 30.9858C18.2253 31.2802 18.1174 31.8605 18.4257 32.282C18.7341 32.7036 19.3419 32.8066 19.7833 32.5122L20.8739 31.7849L22.2015 31.9382C22.254 32.3899 22.346 32.8324 22.4743 33.2589L21.1446 34.0417C21.0217 34.1141 20.9172 34.2116 20.8386 34.3272L19.5231 36.2618C19.2298 36.693 19.3582 37.2695 19.8098 37.5495C20.2614 37.8295 20.8653 37.7069 21.1585 37.2757L22.3547 35.5167L23.2491 34.9901C24.1531 36.4536 25.5609 37.5126 27.2685 37.7499V27.7924C27.2685 27.4067 27.5959 27.0941 27.9998 27.0941C28.4036 27.0941 28.731 27.4067 28.731 27.7924V37.75C30.4389 37.5128 31.8469 36.4537 32.7509 34.9901L33.6454 35.5167L34.8415 37.2757C35.1347 37.7069 35.7386 37.8295 36.1902 37.5495C36.6418 37.2695 36.7702 36.693 36.4769 36.2618L35.1614 34.3272C35.0828 34.2116 34.9783 34.1141 34.8554 34.0417L33.5257 33.2589C33.654 32.8324 33.746 32.3899 33.7985 31.9382L35.1261 31.7849L36.2167 32.5122C36.6581 32.8066 37.2659 32.7036 37.5743 32.282C37.8826 31.8605 37.7747 31.2802 37.3332 30.9858L35.9372 30.0548C35.7405 29.9236 35.5001 29.8663 35.2619 29.8938L33.7863 30.0641C33.742 29.7217 33.675 29.3849 33.5867 29.0567L35.3975 27.8613C35.5263 27.7763 35.6317 27.663 35.7048 27.5309L36.5714 25.9673C36.8233 25.5129 36.6416 24.9495 36.1657 24.709C35.6898 24.4686 35.0998 24.642 34.8479 25.0965L34.0927 26.4591L32.8511 27.2788C32.5412 26.7442 32.1658 26.2594 31.7342 25.8436C31.842 25.5022 31.8999 25.1405 31.8999 24.7669C31.8999 23.6084 31.3459 22.5734 30.477 21.8905C30.8019 20.6136 31.6325 20.1924 32.1134 20.0896Z" fill="white"/>
<defs>
<linearGradient id="paint0_linear_401_407" x1="0" y1="0" x2="63.4336" y2="55.5044" gradientUnits="userSpaceOnUse">
<stop stop-color="#4D3BF9"/>
<stop offset="1" stop-color="#746EA1"/>
</linearGradient>
</defs>
</svg>
