<svg width="56" height="64" viewBox="0 0 56 64" fill="none" xmlns="http://www.w3.org/2000/svg">
<path d="M0 4C0 1.79086 1.79086 0 4 0H52C54.2091 0 56 1.79086 56 4V47.2773C56 48.7519 55.1887 50.1069 53.8889 50.8032L30.3611 63.4074C29.6236 63.8025 28.8118 64 28 64C27.1882 64 26.3764 63.8025 25.6389 63.4074L2.11112 50.8032C0.811295 50.1069 0 48.7519 0 47.2773V4Z" fill="url(#paint0_linear_401_410)"/>
<path fill-rule="evenodd" clip-rule="evenodd" d="M28 20.381L18.7897 36.0952H37.2103L28 20.381ZM29.256 18.7143C28.6978 17.7619 27.3023 17.7619 26.7441 18.7143L16.6965 35.8571C16.1383 36.8095 16.836 38 17.9524 38H38.0476C39.164 38 39.8617 36.8095 39.3035 35.8571L29.256 18.7143Z" fill="white"/>
<defs>
<linearGradient id="paint0_linear_401_410" x1="0" y1="0" x2="63.4336" y2="55.5044" gradientUnits="userSpaceOnUse">
<stop stop-color="#4D3BF9"/>
<stop offset="1" stop-color="#746EA1"/>
</linearGradient>
</defs>
</svg>
