<svg width="56" height="64" viewBox="0 0 56 64" fill="none" xmlns="http://www.w3.org/2000/svg">
<path d="M0 4C0 1.79086 1.79086 0 4 0H52C54.2091 0 56 1.79086 56 4V47.2773C56 48.7519 55.1887 50.1069 53.8889 50.8032L30.3611 63.4074C29.6236 63.8025 28.8118 64 28 64C27.1882 64 26.3764 63.8025 25.6389 63.4074L2.11112 50.8032C0.811295 50.1069 0 48.7519 0 47.2773V4Z" fill="url(#paint0_linear)"/>
<path fill-rule="evenodd" clip-rule="evenodd" d="M29.8 22H30.7V21.1H29.8V22ZM25.3 22H26.2V21.1H25.3V22ZM31.177 19.444L32.347 18.274C32.527 18.094 32.527 17.815 32.347 17.635C32.167 17.455 31.888 17.455 31.708 17.635L30.376 18.967C29.665 18.607 28.855 18.4 28 18.4C27.136 18.4 26.326 18.607 25.606 18.967L24.265 17.635C24.085 17.455 23.806 17.455 23.626 17.635C23.446 17.815 23.446 18.094 23.626 18.274L24.805 19.453C23.473 20.434 22.6 22.009 22.6 23.8H33.4C33.4 22.009 32.527 20.425 31.177 19.444V19.444ZM35.65 24.7C34.903 24.7 34.3 25.303 34.3 26.05V32.35C34.3 33.097 34.903 33.7 35.65 33.7C36.397 33.7 37 33.097 37 32.35V26.05C37 25.303 36.397 24.7 35.65 24.7V24.7ZM20.35 24.7C19.603 24.7 19 25.303 19 26.05L19 32.35C19 33.097 19.603 33.7 20.35 33.7C21.097 33.7 21.7 33.097 21.7 32.35V26.05C21.7 25.303 21.097 24.7 20.35 24.7V24.7ZM22.6 33.7C22.6 34.195 23.005 34.6 23.5 34.6H24.4L24.4 37.75C24.4 38.497 25.003 39.1 25.75 39.1C26.497 39.1 27.1 38.497 27.1 37.75V34.6H28.9V37.75C28.9 38.497 29.503 39.1 30.25 39.1C30.997 39.1 31.6 38.497 31.6 37.75V34.6H32.5C32.995 34.6 33.4 34.195 33.4 33.7V24.7H22.6V33.7Z" fill="white"/>
<defs>
<linearGradient id="paint0_linear" x1="0" y1="0" x2="34.4615" y2="60.3077" gradientUnits="userSpaceOnUse">
<stop stop-color="#159300"/>
<stop offset="1" stop-color="#62CD1E"/>
</linearGradient>
</defs>
</svg>
