<svg width="56" height="64" viewBox="0 0 56 64" fill="none" xmlns="http://www.w3.org/2000/svg">
<path d="M0 4C0 1.79086 1.79086 0 4 0H52C54.2091 0 56 1.79086 56 4V47.2773C56 48.7519 55.1887 50.1069 53.8889 50.8032L30.3611 63.4074C29.6236 63.8025 28.8118 64 28 64C27.1882 64 26.3764 63.8025 25.6389 63.4074L2.11112 50.8032C0.811295 50.1069 0 48.7519 0 47.2773V4Z" fill="url(#paint0_linear)"/>
<path fill-rule="evenodd" clip-rule="evenodd" d="M28.375 22.4485C26.7191 23.6447 26.8088 25.6201 27.7012 27.2522C27.8003 27.2507 27.8999 27.25 28 27.25C28.0656 27.25 28.1309 27.2503 28.1961 27.2509C28.0312 27.2526 27.8682 27.2567 27.7072 27.2631C28.2158 28.1886 28.9823 29.0027 29.8344 29.5C28.2471 29.3308 26.9979 28.4694 26.1672 27.3999C24.1581 27.686 22.75 28.3507 22.75 29.125C22.75 30.1605 25.2684 31 28.375 31C31.4816 31 34 30.1605 34 29.125C34 28.5323 33.1751 28.0039 31.8871 27.6603C33.6189 28.0676 34.75 28.7398 34.75 29.5C34.75 30.3293 34.6004 31.1237 34.3268 31.8576C33.745 32.1566 32.9515 32.4656 31.9275 32.6601C30.2157 32.9852 28.5342 33.0191 27.4914 33.0401H27.4913C26.9928 33.0502 26.6402 33.0573 26.5 33.0919C26.5669 33.524 28.549 34.1102 31.2156 33.9514C31.9843 33.9056 32.7017 33.7855 33.3335 33.6377C32.0986 35.2272 30.1687 36.25 28 36.25C24.2721 36.25 21.25 33.2279 21.25 29.5C21.25 28.4748 23.3069 27.6098 26.1201 27.3384C25.124 26.0212 24.756 24.4068 25.1632 23.3809C25.8792 21.5772 27.3421 20.7038 28.6044 19.9501C30.2071 18.9932 31.4863 18.2295 30.5024 16C30.5024 16 33.7984 18.5306 28.375 22.4485ZM35.5 28.1807C39.2485 25.1663 41.5257 30.3146 35.7071 31.75C38.5908 29.5 38.1133 27.919 35.5 28.1807ZM21.4701 33.69C19.051 34.0976 17.5 34.8044 17.5 35.875C17.5 37.739 22.201 40 28 40C33.799 40 38.5 37.739 38.5 35.875C38.5 34.8044 36.949 34.0976 34.5299 33.69C35.5028 34.1677 36.0769 34.7563 36.0769 35.3929C36.0769 36.9906 32.4608 38.2858 28 38.2858C23.5392 38.2858 19.9231 36.9906 19.9231 35.3929C19.9231 34.7563 20.4972 34.1677 21.4701 33.69ZM30.8701 25.4741C31.5158 26.3779 32.3494 27.9332 30.4492 29.1582C31.0123 27.7895 30.3568 27.283 29.7035 26.7783C29.2577 26.4339 28.813 26.0903 28.757 25.4741C28.5831 23.5608 31.6835 22 34.3954 22C34.2795 22.0563 34.1525 22.1168 34.0173 22.1811C32.485 22.9102 29.9126 24.134 30.8701 25.4741Z" fill="white"/>
<defs>
<linearGradient id="paint0_linear" x1="0" y1="0" x2="34.4615" y2="60.3077" gradientUnits="userSpaceOnUse">
<stop stop-color="#FFC701"/>
<stop offset="1" stop-color="#F04C36"/>
</linearGradient>
</defs>
</svg>
