<svg width="56" height="64" viewBox="0 0 56 64" fill="none" xmlns="http://www.w3.org/2000/svg">
<path d="M0 4C0 1.79086 1.79086 0 4 0H52C54.2091 0 56 1.79086 56 4V47.2773C56 48.7519 55.1887 50.1069 53.8889 50.8032L30.3611 63.4074C29.6236 63.8025 28.8118 64 28 64C27.1882 64 26.3764 63.8025 25.6389 63.4074L2.11112 50.8032C0.811295 50.1069 0 48.7519 0 47.2773V4Z" fill="url(#paint0_linear)"/>
<path fill-rule="evenodd" clip-rule="evenodd" d="M28 18.25C28 18.25 24.25 21.25 19 21.25C19 34.75 28 38.5 28 38.5C28 38.5 37 35.5 37 21.25C31.75 21.25 28 18.25 28 18.25ZM30.25 25.75C30.25 26.6233 29.7524 27.3804 29.0253 27.7533L29.5 32.5H26.5L26.9747 27.7533C26.2476 27.3804 25.75 26.6233 25.75 25.75C25.75 24.5074 26.7574 23.5 28 23.5C29.2426 23.5 30.25 24.5074 30.25 25.75Z" fill="white"/>
<defs>
<linearGradient id="paint0_linear" x1="0" y1="0" x2="34.4615" y2="60.3077" gradientUnits="userSpaceOnUse">
<stop stop-color="#00A9C3"/>
<stop offset="1" stop-color="#005D8E"/>
</linearGradient>
</defs>
</svg>
