<svg width="56" height="64" viewBox="0 0 56 64" fill="none" xmlns="http://www.w3.org/2000/svg">
<path d="M0 4C0 1.79086 1.79086 0 4 0H52C54.2091 0 56 1.79086 56 4V47.2773C56 48.7519 55.1887 50.1069 53.8889 50.8032L30.3611 63.4074C29.6236 63.8025 28.8118 64 28 64C27.1882 64 26.3764 63.8025 25.6389 63.4074L2.11112 50.8032C0.811295 50.1069 0 48.7519 0 47.2773V4Z" fill="url(#paint0_linear)"/>
<path d="M37.06 17.5L18.94 17.5C18.145 17.5 17.5 18.145 17.5 18.94V20.56L17.5 37.06C17.5 37.855 18.145 38.5 18.94 38.5H37.06C37.855 38.5 38.5 37.855 38.5 37.06V20.56V18.94C38.5 18.145 37.855 17.5 37.06 17.5ZM25.75 19C26.1625 19 26.5 19.3375 26.5 19.75C26.5 20.1625 26.1625 20.5 25.75 20.5C25.3375 20.5 25 20.1625 25 19.75C25 19.3375 25.3375 19 25.75 19ZM22.75 19C23.1625 19 23.5 19.3375 23.5 19.75C23.5 20.1625 23.1625 20.5 22.75 20.5C22.3375 20.5 22 20.1625 22 19.75C22 19.3375 22.3375 19 22.75 19ZM19.75 19C20.1625 19 20.5 19.3375 20.5 19.75C20.5 20.1625 20.1625 20.5 19.75 20.5C19.3375 20.5 19 20.1625 19 19.75C19 19.3375 19.3375 19 19.75 19ZM37 37H19L19 22L37 22V37Z" fill="white"/>
<path d="M34 28L29.5 25V26.875L33.3571 29.5L34 28Z" fill="white"/>
<path d="M22 28L26.5 25V26.875L22.6429 29.5L22 28Z" fill="white"/>
<path d="M33.3571 28.75L29.5 31.375V33.25L34 30.25L33.3571 28.75Z" fill="white"/>
<path d="M22.6429 28.75L26.5 31.375V33.25L22 30.25L22.6429 28.75Z" fill="white"/>
<rect x="33.25" y="28" width="0.750002" height="2.25" fill="white"/>
<rect width="0.75" height="2.25" transform="matrix(-1 0 0 1 22.75 28)" fill="white"/>
<defs>
<linearGradient id="paint0_linear" x1="0" y1="0" x2="63.4336" y2="55.5044" gradientUnits="userSpaceOnUse">
<stop stop-color="#EA98DA"/>
<stop offset="1" stop-color="#5B6CF9"/>
</linearGradient>
</defs>
</svg>
