<svg width="56" height="64" viewBox="0 0 56 64" fill="none" xmlns="http://www.w3.org/2000/svg">
<path d="M0 4C0 1.79086 1.79086 0 4 0H52C54.2091 0 56 1.79086 56 4V47.2773C56 48.7519 55.1887 50.1069 53.8889 50.8032L30.3611 63.4074C29.6236 63.8025 28.8118 64 28 64C27.1882 64 26.3764 63.8025 25.6389 63.4074L2.11112 50.8032C0.811295 50.1069 0 48.7519 0 47.2773V4Z" fill="url(#paint0_linear)"/>
<path fill-rule="evenodd" clip-rule="evenodd" d="M32.5 24.6244C32.5 26.0719 31.3225 27.2501 29.8743 27.2501H26.1258C23.851 27.2501 22 29.1011 22 31.3759V32.5001V32.5009H20.806C19.5175 32.5009 19.0375 31.6024 18.5898 30.2539C18.127 28.8649 18.1465 27.5299 18.5898 25.7486C18.9085 24.4661 19.516 23.5009 20.806 23.5009H21.25V23.5001H28V22.0001H23.5L23.5 20.7746C23.5 19.4756 23.8458 18.7706 25.7515 18.4339C26.398 18.3199 27.133 18.2539 27.9033 18.2501C28.6728 18.2471 29.4753 18.3056 30.2485 18.4339C31.4703 18.6379 32.5 19.5544 32.5 20.7746V21.9994V22.0001V23.5001V24.6244ZM25.0001 20.5001C25.0001 20.9141 25.3361 21.2501 25.7501 21.2501C26.1641 21.2501 26.5001 20.9141 26.5001 20.5001C26.5001 20.0861 26.1641 19.7501 25.7501 19.7501C25.3361 19.7501 25.0001 20.0861 25.0001 20.5001ZM30.2501 34.7501C30.6641 34.7501 31.0001 35.0861 31.0001 35.5001C31.0001 35.9141 30.6641 36.2501 30.2501 36.2501C29.8361 36.2501 29.5001 35.9141 29.5001 35.5001C29.5001 35.0861 29.8361 34.7501 30.2501 34.7501ZM35.1941 23.5009C36.4841 23.5009 37.0916 24.4661 37.4103 25.7486C37.8536 27.5299 37.8731 28.8649 37.4103 30.2539C36.9626 31.6024 36.4826 32.5009 35.1941 32.5009H34.0001V32.5001H28.0001V34.0001H32.5001V35.2256C32.5001 36.5246 32.1543 37.2296 30.2486 37.5656C29.6021 37.6804 28.8671 37.7464 28.0968 37.7494C27.3273 37.7531 26.5248 37.6946 25.7516 37.5656C24.5298 37.3624 23.5001 36.4459 23.5001 35.2256V34.0016V34.0001V32.5001V31.3759C23.5001 29.9276 24.6776 28.7501 26.1258 28.7501H29.8743C32.1491 28.7501 34.0001 26.8991 34.0001 24.6244V23.5001H34.7501V23.5009H35.1941Z" fill="white"/>
<defs>
<linearGradient id="paint0_linear" x1="0" y1="0" x2="34.4615" y2="60.3077" gradientUnits="userSpaceOnUse">
<stop stop-color="#0075FF"/>
<stop offset="1" stop-color="#00DA98"/>
</linearGradient>
</defs>
</svg>
