<svg width="56" height="64" viewBox="0 0 56 64" fill="none" xmlns="http://www.w3.org/2000/svg">
<path d="M0 4C0 1.79086 1.79086 0 4 0H52C54.2091 0 56 1.79086 56 4V47.2773C56 48.7519 55.1887 50.1069 53.8889 50.8032L30.3611 63.4074C29.6236 63.8025 28.8118 64 28 64C27.1882 64 26.3764 63.8025 25.6389 63.4074L2.11112 50.8032C0.811295 50.1069 0 48.7519 0 47.2773V4Z" fill="url(#paint0_linear)"/>
<g clip-path="url(#clip0)">
<path fill-rule="evenodd" clip-rule="evenodd" d="M37.75 20.5C38.9926 20.5 40 19.4926 40 18.25C40 17.0074 38.9926 16 37.75 16C36.5075 16 35.5 17.0074 35.5 18.25C35.5 18.5974 35.5786 18.9262 35.7192 19.2199L31.6791 23.26C30.6631 22.4703 29.3865 22 28 22C26.6135 22 25.3369 22.4703 24.3209 23.2601L21.7806 20.7201C21.9213 20.4264 22 20.0974 22 19.75C22 18.5074 20.9926 17.5 19.75 17.5C18.5074 17.5 17.5 18.5074 17.5 19.75C17.5 20.9926 18.5074 22 19.75 22C20.0974 22 20.4264 21.9213 20.7201 21.7807L23.2601 24.3208C22.4704 25.3367 22 26.6134 22 28C22 29.0814 22.2862 30.0961 22.7868 30.9724L20.2471 32.877C19.8901 32.6388 19.4612 32.5 19 32.5C17.7574 32.5 16.75 33.5074 16.75 34.75C16.75 35.9926 17.7574 37 19 37C20.2426 37 21.25 35.9926 21.25 34.75C21.25 34.5154 21.2141 34.2893 21.1475 34.0767L23.6875 32.1717C24.7783 33.2991 26.3074 34 28 34C28.6324 34 29.242 33.9021 29.8144 33.7208L30.9301 36.1382C30.5106 36.5469 30.25 37.1181 30.25 37.75C30.25 38.9926 31.2574 40 32.5 40C33.7426 40 34.75 38.9926 34.75 37.75C34.75 36.5074 33.7426 35.5 32.5 35.5C32.4299 35.5 32.3605 35.5032 32.292 35.5095L31.176 33.0914C31.9509 32.6071 32.6071 31.9508 33.0914 31.176L35.5095 32.292C35.5033 32.3605 35.5 32.4299 35.5 32.5C35.5 33.7426 36.5075 34.75 37.75 34.75C38.9926 34.75 40 33.7426 40 32.5C40 31.2574 38.9926 30.25 37.75 30.25C37.1181 30.25 36.547 30.5106 36.1383 30.9301L33.7208 29.8143C33.9022 29.2419 34 28.6324 34 28C34 26.6134 33.5296 25.3368 32.7399 24.3208L36.7799 20.2806C37.0736 20.4213 37.4027 20.5 37.75 20.5Z" fill="white"/>
</g>
<defs>
<linearGradient id="paint0_linear" x1="0" y1="0" x2="34.4615" y2="60.3077" gradientUnits="userSpaceOnUse">
<stop stop-color="#04E8DB"/>
<stop offset="1" stop-color="#9359EF"/>
</linearGradient>
<clipPath id="clip0">
<rect width="24" height="24" fill="white" transform="translate(16 16)"/>
</clipPath>
</defs>
</svg>
