<svg width="512" height="512" viewBox="0 0 512 512" fill="none" xmlns="http://www.w3.org/2000/svg">
<path d="M143.375 0.825079C67.975 8.82508 8.975 68.2251 0.975 144.025C-0.325 156.325 -0.325 355.325 0.975 367.625C9.075 444.025 67.775 502.725 144.175 510.825C156.475 512.125 355.475 512.125 367.775 510.825C444.175 502.725 502.875 444.025 510.975 367.625C512.275 355.325 512.275 156.325 510.975 144.025C502.875 67.6251 444.175 8.92508 367.775 0.825079C356.875 -0.274921 154.175 -0.274921 143.375 0.825079ZM374.975 50.2251C397.475 55.6251 415.575 65.5251 430.975 80.8251C446.675 96.6251 456.775 115.425 461.675 137.825C463.375 145.725 463.475 153.625 463.475 255.825C463.475 358.025 463.375 365.925 461.675 373.825C456.775 396.225 446.675 415.025 430.975 430.825C415.175 446.525 396.375 456.625 373.975 461.525C366.075 463.225 358.175 463.325 255.975 463.325C153.775 463.325 145.875 463.225 137.975 461.525C115.575 456.625 96.775 446.525 80.975 430.825C65.275 415.025 55.175 396.225 50.275 373.825C48.575 365.925 48.475 358.025 48.475 255.825C48.475 153.625 48.575 145.725 50.275 137.825C57.675 103.425 79.275 75.3251 109.975 59.8251C121.475 54.1251 130.775 51.3251 147.975 48.5251C149.375 48.2251 199.275 48.1251 258.975 48.2251C359.475 48.4251 367.975 48.5251 374.975 50.2251Z" fill="black"/>
<path d="M388.975 102.125C381.175 104.725 376.975 110.425 376.975 118.425C376.975 127.725 384.075 134.825 393.375 134.825C401.575 134.825 407.875 130.025 409.875 122.325C413.075 109.725 401.075 98.125 388.975 102.125Z" fill="black"/>
<path d="M239.575 128.925C191.275 135.625 150.075 169.325 134.975 214.625C129.975 229.825 128.575 238.825 128.575 255.825C128.575 272.925 129.975 281.825 135.075 297.325C147.175 333.525 178.375 364.625 214.775 376.825C229.975 381.825 238.975 383.225 255.975 383.225C272.975 383.225 281.975 381.825 297.175 376.825C333.575 364.625 364.775 333.525 376.875 297.325C381.975 281.825 383.375 272.925 383.375 255.825C383.375 244.725 382.875 237.925 381.675 231.825C375.975 204.725 363.875 182.625 344.575 164.025C326.375 146.525 305.475 135.425 280.475 130.325C270.875 128.325 249.075 127.525 239.575 128.925ZM278.475 179.325C317.675 190.825 342.475 231.325 334.375 270.625C327.675 303.425 303.575 327.525 270.775 334.225C245.675 339.425 218.375 330.925 199.675 312.125C162.475 274.925 170.375 214.025 216.075 186.725C234.075 175.925 257.575 173.125 278.475 179.325Z" fill="black"/>
</svg>
