<svg width="458" height="512" viewBox="0 0 458 512" fill="none" xmlns="http://www.w3.org/2000/svg">
<path d="M98.2 2.89999L94.9 5.79999L94.6 93.8L94.4 181.7L90.5 183.5C85.1 185.9 81 190.4 77.1 198.1C72.7 206.9 70.1 208.1 61.9 205.2C42.4 198.1 23.2 209.7 21.7 229.5C21.3 233.7 21.7 236.8 22.9 240C25.5 246.7 25.9 251.6 24.1 254.3C23.3 255.6 19.7 258.1 16.1 259.8C5.3 265.2 0.1 273.5 0 285.5C0 297.7 5.7 306.6 16.9 311.9C23.3 315 26.4 318 26.4 321.3C26.4 322.2 25.5 325.9 24.3 329.3C18.1 347.5 29.8 366 48.6 367.7L54.4 368.3V408.6C54.4 432.3 54.8 449.9 55.4 451.4C56.7 455 62.2 458.2 65.8 457.5C67.4 457.2 74.3 453.4 81.3 448.9L93.9 440.9L94.4 473.5L94.9 506.2L98.2 509.1L101.4 512H275.9H450.4L453.6 509.1L456.9 506.2L457.2 448.8C457.4 417.3 457.2 390 456.9 388.1C455.4 380.2 446 377.2 440.3 382.9L437.4 385.8V438.9V492H275.9H114.4V466C114.4 451.7 114.7 440 115.1 440C115.4 440 121.8 443.9 129.3 448.7C145.2 459 148.5 459.8 153.5 454.2L156.4 451V409.1V367.3L161.8 366.7C180.7 364.8 191.9 345.8 185.3 326.8C182.1 317.5 182.9 315.6 191.9 310.7C200.4 306.1 202.4 304.3 205.8 298.1C213.9 283.1 207.4 264.8 191.4 257.6C187.2 255.7 184.9 254 183.8 251.9C182.4 249.1 182.4 248.4 184.3 242.7C187.4 233.5 187.1 225.8 183.3 218.2C176.2 203.9 162.8 198.9 146.2 204.2C136.9 207.2 134.9 206.4 130.7 198.1C127.1 190.7 123.4 186.6 118.2 183.9L114.4 182V101V20H275.9H437.4V162.4V304.7L439.9 307.3C443.3 310.7 446.6 311.3 450.9 309.6C457.9 306.7 457.4 317.2 457.2 153.4L456.9 5.79999L453.6 2.89999L450.4 -7.62939e-06H275.9H101.4L98.2 2.89999ZM108.5 201C109.6 201.6 111.8 205 113.5 208.5C120.3 222.9 136.1 229.6 150.4 224.1C157.7 221.3 160.9 221.4 164 224.6C166.9 227.4 166.9 231 164 241C160 254.4 167 268.3 181.1 274.7C187.2 277.5 189.4 280.1 189.4 284.5C189.4 288.1 187 290.7 180.6 293.9C167.3 300.6 160.2 316.6 164.9 329C167.7 336.3 167.9 341.1 165.4 343.7C162.2 347.2 159.1 347.5 151.3 345C145.9 343.2 143.1 342.9 138.8 343.4C128.2 344.6 119.4 351 115.3 360.5C112.5 367.1 110.8 368.8 106.8 369.6C102.1 370.5 98.9 368.1 96 361.7C89.6 347.3 73 340.4 58.2 346C51 348.7 48.8 348.5 45.2 345C41.8 341.6 41.8 339.2 44.9 331C46.1 327.8 46.5 324.6 46.1 320C45.4 308.8 40 300.8 30 296.1C22.3 292.4 20 289.9 20 285.5C20 281.2 22.3 278.7 28.8 275.7C42.9 269.2 49.2 252.8 43.4 238C40.7 231.2 40.9 229.4 44.3 225.9C47.8 222.4 50.3 222.3 58.7 225.1C73.3 230.1 87.7 223.4 94.5 208.5C98 200.8 103 198.1 108.5 201ZM136.2 413L135.9 429.1L122.5 420.5C112.1 413.9 108.2 412 105.5 412C102.7 412 98.9 413.9 88.6 420.5C81.3 425.2 75.1 429 74.9 429C74.6 429 74.4 414.8 74.4 397.4C74.4 375.6 74.7 366.1 75.5 366.5C76 366.9 77.6 369.5 78.8 372.4C81.7 378.9 87.2 384.6 93.3 387.4C100.2 390.5 111.2 390.3 117.9 386.8C124.2 383.5 128.6 378.9 131.6 372.5C132.9 369.7 134.4 366.8 134.9 366C136 364.3 136.6 386.6 136.2 413Z" fill="#6654D9"/>
<path d="M93.7 233.5C75.7 237.4 60.4 251.8 55 269.9C52.7 277.6 52.9 291.2 55.4 299.2C61.2 318 78.2 332.3 98 335.1C119.4 338.2 141.5 326.3 150.7 306.9C158.3 290.9 158.3 277.1 150.7 261.1C144.1 247.1 130.8 236.9 114.9 233.5C106.5 231.7 101.9 231.7 93.7 233.5ZM117.9 255.4C124.3 258.3 129.6 263.5 133.1 270.3C137 277.8 137 289.1 133.3 297C124 316.6 99 321.7 83.5 307.2C69.9 294.4 69.8 272.8 83.4 260.7C93 252 106.1 250 117.9 255.4Z" fill="#6654D9"/>
<path d="M275.8 49.6C274.1 50.4 272.2 52.2 271.5 53.6C270.8 55.2 270.4 64.1 270.4 79V102L273.3 105.2L276.2 108.5L334.6 108.8C366.7 109 394.8 108.8 397.2 108.5C399.5 108.1 402.7 106.8 404.2 105.5L406.9 103.2L407.2 79.2L407.5 55.1L404.5 51.8L401.6 48.5L340.2 48.3C286.5 48.1 278.5 48.2 275.8 49.6ZM387.4 78.5V89H338.9H290.4V78.5V68H338.9H387.4V78.5Z" fill="#6654D9"/>
<path d="M184.1 55.8C180.4 59.6 180.3 66 183.9 69.5C187.4 73.1 194.1 73 197.8 69.4C201.7 65.4 201.5 59.1 197.3 55.6C193 52 187.7 52 184.1 55.8Z" fill="#6654D9"/>
<path d="M152.2 64.6C143.6 69.2 147.2 83 156.9 83C166.8 83 170.2 69 161.4 64.5C157.8 62.6 155.7 62.7 152.2 64.6Z" fill="#6654D9"/>
<path d="M220.8 64.5C214.8 67.6 213.5 75.3 218.3 80.1C223.2 85 230.9 83.6 233.9 77.3C238 68.7 229.3 60.3 220.8 64.5Z" fill="#6654D9"/>
<path d="M183.9 92.1C167.6 94.2 153.4 102.3 149.8 111.5C146.9 119.2 148.1 126.1 154.2 136.2C163.8 152.1 166.8 153.5 190.9 153.5C215 153.5 218 152.1 227.6 136.2C231.9 129 232.9 126.6 233.2 121.7C234 110.4 228.5 102.5 215.9 97.3C204.4 92.4 194.2 90.8 183.9 92.1ZM205.9 114.9C210.1 116.5 213 118.2 213.2 119.2C213.5 120.9 208 130.7 205.6 132.7C204.5 133.6 199.9 134 190.9 134C181.9 134 177.3 133.6 176.2 132.7C173.8 130.8 168.3 121 168.6 119.2C169 117.4 178.9 113.1 185.4 112C191.7 111 197.8 111.8 205.9 114.9Z" fill="#6654D9"/>
<path d="M273.3 132.9C268.6 137.6 270 146.1 275.9 148.8C277.8 149.7 294.3 150 339.5 150H400.6L404 146.6C407.7 142.9 408.3 139.6 406 135.1C405.2 133.6 403.4 131.9 401.9 131.2C400 130.3 383.4 130 337.8 130H276.2L273.3 132.9Z" fill="#6654D9"/>
<path d="M236.4 203.7C228.9 206.5 227.4 216.1 233.8 221.2C235.7 222.8 241.7 223 318.2 223C372.8 223 401.2 222.7 402.5 222C404.9 220.7 407.4 215.9 407.4 212.6C407.4 211.2 406.1 208.6 404.5 206.8L401.6 203.5L319.7 203.3C274.7 203.2 237.2 203.4 236.4 203.7Z" fill="#6654D9"/>
<path d="M234.5 248.4C228.6 251.7 227.8 258.6 232.8 263.6L236.2 267H318.4H400.6L404 263.6C407.7 259.9 408.3 256.6 406 252.1C405.2 250.6 403.4 248.9 401.9 248.2C397.9 246.4 237.8 246.6 234.5 248.4Z" fill="#6654D9"/>
<path d="M232.9 293.4C228.2 298.1 228.6 304.6 233.8 308.4C236.5 310.5 237.5 310.5 317 310.8C404.4 311.1 402.3 311.2 405.9 305.6C408.3 302 407.3 296.2 403.9 293.2L401.3 291H318.3H235.3L232.9 293.4Z" fill="#6654D9"/>
<path d="M236.4 334.7C233.4 335.8 230.4 339.4 229.8 342.5C229.1 346.2 231.4 351.4 234.3 353C237 354.4 399.8 354.4 402.5 353C404.9 351.7 407.4 346.9 407.4 343.6C407.4 342.2 406.1 339.6 404.5 337.8L401.6 334.5L319.7 334.3C274.7 334.2 237.2 334.4 236.4 334.7Z" fill="#6654D9"/>
<path d="M443 335.5C438.9 337.7 437.5 339.9 437.4 344.3C437.3 354.6 451.5 357.7 455.9 348.3C459.8 340.2 450.9 331.3 443 335.5Z" fill="#6654D9"/>
<path d="M289.2 405.5C283.5 408.7 282.6 416.3 287.3 421.1L290.2 424H345.4C381.3 424 401.2 423.6 402.5 423C404.9 421.7 407.4 416.9 407.4 413.6C407.4 412.2 406.1 409.6 404.5 407.8L401.6 404.5L346.7 404.3C299.7 404.1 291.5 404.3 289.2 405.5Z" fill="#6654D9"/>
</svg>
