<svg width="512" height="512" viewBox="0 0 512 512" fill="none" xmlns="http://www.w3.org/2000/svg">
<path d="M261.251 69.9039C114.651 113.904 27.1508 140.704 23.9508 142.504C17.2508 146.104 7.85076 156.204 4.55076 163.104C-6.44924 186.604 3.15076 214.204 26.2508 225.304C31.0508 227.604 65.2508 237.904 130.451 256.404L227.651 284.104L255.351 381.304C273.651 445.604 284.151 480.804 286.351 485.404C297.551 508.504 325.251 518.204 348.651 507.204C355.951 503.804 365.851 494.304 369.551 487.204C372.951 480.804 511.851 19.3039 511.851 14.5039C511.851 7.10395 504.151 -0.196053 496.651 0.00394745C494.851 0.103947 388.851 31.5039 261.251 69.9039ZM339.251 151.004L235.251 255.004L138.251 227.304C84.9508 212.104 40.1508 199.004 38.6508 198.304C34.2508 196.004 30.5508 190.404 30.1508 185.104C29.6508 179.704 32.6508 172.704 36.8508 169.704C38.8508 168.204 438.451 47.3039 442.351 47.0039C442.851 46.9039 396.551 93.704 339.251 151.004ZM404.351 270.904C371.151 381.704 343.051 473.504 342.051 474.904C339.651 478.304 332.251 481.904 327.851 481.904C323.651 481.904 317.351 478.504 314.551 474.804C313.451 473.204 301.251 432.204 284.651 374.304L256.751 276.504L360.451 172.804C417.551 115.704 464.351 69.1039 464.551 69.2039C464.651 69.4039 437.551 160.104 404.351 270.904Z" fill="black"/>
</svg>
