<svg width="512" height="352" viewBox="0 0 512 352" fill="none" xmlns="http://www.w3.org/2000/svg">
<path d="M141.299 0.840913C59.8987 2.24091 46.8987 4.44091 32.3987 19.2409C10.8987 41.1409 1.69867 81.0409 0.198672 159.741C-0.901328 214.741 2.59867 260.041 9.89867 287.741C16.3987 311.941 27.6987 331.041 40.4987 339.041C57.5987 349.741 81.1987 351.141 256.799 351.041C431.499 351.041 453.999 349.841 470.799 339.241C487.299 328.841 499.699 303.841 505.699 268.641C509.999 243.541 511.199 223.841 511.199 176.241C511.199 131.841 510.599 118.241 507.299 93.7409C502.299 57.0409 493.299 33.2409 478.599 18.6409C468.299 8.24091 457.099 4.64091 429.799 2.74091C391.699 0.140913 238.499 -0.859087 141.299 0.840913ZM275.099 129.741C316.699 154.741 350.799 175.441 350.799 175.741C350.799 176.141 256.599 233.041 195.699 269.541L191.799 271.841V175.741V79.6409L195.699 81.9409C197.799 83.2409 233.499 104.741 275.099 129.741Z" fill="black"/>
</svg>
